<?xml version="1.0" encoding="utf-8"?>
<!-- Generator: Adobe Illustrator 20.1.0, SVG Export Plug-In . SVG Version: 6.00 Build 0)  -->
<svg version="1.1" id="Layer_1" xmlns="http://www.w3.org/2000/svg" xmlns:xlink="http://www.w3.org/1999/xlink" x="0px" y="0px"
	 viewBox="0 0 130 187.5" style="enable-background:new 0 0 130 187.5;" xml:space="preserve">
<style type="text/css">
	.st0{fill:#3F80BC;}
</style>
<polyline points="64.9,181.9 120,181 67.1,175 "/>
<g>
	<path class="st0" d="M64.9,182.8c-2.7,0-6-1.2-16.1-15.7c-6.2-8.9-13.4-20.7-20.2-33C20.5,119.3,1.4,82.5,1.4,62.6
		c0-33.3,28.5-60.3,63.4-60.3s63.4,27.1,63.4,60.3c0,18.8-17.6,53-28.1,71.6C93.6,146,86.2,158,80,167.1
		C69.2,182.8,67.1,182.8,64.9,182.8z M64.9,11.3c-30,0-54.4,23-54.4,51.3c0,26.7,42.5,98.9,54.1,110.2c10.5-12,54.7-82.8,54.7-110.2
		C119.3,34.3,94.9,11.3,64.9,11.3z"/>
</g>
<g>
	<path class="st0" d="M47,62.5c0.3,2.6-1.9,4.8-4.8,5c-2.9,0.2-5.4-1.7-5.7-4.3c-0.3-2.6,1.9-4.8,4.8-5C44.2,58,46.7,60,47,62.5z"/>
</g>
<g>
	<path class="st0" d="M90.1,61c0.3,2.6-1.9,4.8-4.8,5c-2.9,0.2-5.4-1.7-5.7-4.3c-0.3-2.6,1.9-4.8,4.8-5C87.3,56.5,89.8,58.4,90.1,61
		z"/>
</g>
<g>
	<path class="st0" d="M65.2,99.5c-10.9,0-17.9-5.1-18.3-5.5l5.4-7.2c0.5,0.3,11.3,8,26.7,0l4.2,8C76.5,98.3,70.4,99.5,65.2,99.5z"/>
</g>
<g>
	<path class="st0" d="M90.8,61.5c-6-3.3-10.1-0.2-10.2-0.2l-5.7-7c0.4-0.3,8.9-7,20.2-0.7L90.8,61.5z"/>
</g>
<g>
	<path class="st0" d="M46.6,60.8c-6-3.3-10.1-0.2-10.2-0.2l-5.7-7c0.4-0.3,8.9-7,20.2-0.7L46.6,60.8z"/>
</g>
</svg>
