<?xml version="1.0" encoding="utf-8"?>
<!-- Generator: Adobe Illustrator 20.1.0, SVG Export Plug-In . SVG Version: 6.00 Build 0)  -->
<svg version="1.1" id="Layer_1" xmlns="http://www.w3.org/2000/svg" xmlns:xlink="http://www.w3.org/1999/xlink" x="0px" y="0px"
	 viewBox="0 0 127.5 222" style="enable-background:new 0 0 127.5 222;" xml:space="preserve">
<style type="text/css">
	.st0{fill:#3F80BC;}
	.st1{fill:#E14727;}
	.st2{fill:#FFFFFF;}
	.st3{fill:#591716;}
</style>
<g>
	
		<ellipse transform="matrix(0.9975 -7.027338e-02 7.027338e-02 0.9975 -0.7484 6.0148)" class="st0" cx="85.1" cy="13.6" rx="3.6" ry="3.6"/>
	<circle class="st0" cx="73.3" cy="53.9" r="40.3"/>
	<path class="st1" d="M66.3,39.9c21.6,0,29.2,9.7,48.8,13.4c-0.2-23.1-19-41.8-42.2-41.8c-17.5,0-32.5,10.7-38.9,25.9
		C42.6,34.2,56.2,39.9,66.3,39.9z"/>
	<path class="st2" d="M102.4,59.4c-10.6,0-27.6-3.2-43.7-7.7c-25-7-50.7-17.9-49.1-24.3c1.6-6.5,29.1-2.6,54.1,4.3
		c25,7,50.7,17.9,49.1,24.3l0,0C112.2,58.4,108.3,59.4,102.4,59.4z M20,25.2c-5.6,0-8.8,0.9-9.2,2.5C9.6,32,28.8,42.3,59,50.7
		c30.2,8.4,51.7,9.4,52.8,5.1l0,0c1.1-4.3-18.1-14.6-48.3-23C44.6,27.6,29.2,25.2,20,25.2z"/>
	<ellipse transform="matrix(0.2552 -0.9669 0.9669 0.2552 3.5365 89.0324)" class="st0" cx="59.6" cy="42.2" rx="10.5" ry="55.7"/>
	<g>
		<path d="M67.9,210.1c-0.4-0.2-0.8-0.5-1.3-1C66.6,209.4,67,209.8,67.9,210.1z"/>
		<path d="M79.8,207.1c-2,0-3.7,0-5.2,0.1c-2.1,2.5-3.1,3.2-3.9,3.4c2,0.2,4.9,0.3,9.1,0.3c10.9,0,26.1-0.9,26.1-1.9
			S90.7,207.1,79.8,207.1z"/>
		<path class="st0" d="M74.7,207.1c1.2-1.4,2.6-3.4,4.5-6.2c3.8-5.6,8.4-13,12.4-20.2c6.4-11.5,17.3-32.5,17.3-44
			c0-20.4-17.5-37-38.9-37S31,116.3,31,136.8c0,12.3,11.7,34.8,16.7,44c4.2,7.6,8.6,14.7,12.4,20.2c3,4.4,5.1,6.8,6.6,8.1
			c0.5,0.4,0.9,0.8,1.3,1c0.8,0.5,1.4,0.6,2,0.6c0.3,0,0.5,0,0.8-0.1C71.5,210.4,72.6,209.7,74.7,207.1z M55.4,134.2
			c0-8,6.5-14.5,14.5-14.5s14.5,6.5,14.5,14.5c0,8-6.5,14.5-14.5,14.5S55.4,142.3,55.4,134.2z"/>
	</g>
	<path class="st3" d="M35.7,45c4.6-0.5,9.3-0.8,14.2-0.8c22,0,48.1,1.9,59.8,10.7c5.8-0.2,2.8,2.6,3.4,0.5
		c1.5-5.6-21.4-16.5-51.1-24.4c-29.7-7.8-55-9.6-56.5-4C4.3,31.2,16.9,38.4,35.7,45z"/>
</g>
</svg>
